<?xml version="1.0" encoding="utf-8"?>
<!-- Generator: Adobe Illustrator 21.0.0, SVG Export Plug-In . SVG Version: 6.00 Build 0)  -->
<svg version="1.1" id="Layer_1" xmlns="http://www.w3.org/2000/svg" xmlns:xlink="http://www.w3.org/1999/xlink" x="0px" y="0px"
	 viewBox="0 0 3100 834" style="enable-background:new 0 0 3100 834;" xml:space="preserve">
<style type="text/css">
	.st0{fill:#FFFFFF;}
</style>
<polygon class="st0" points="1367.7,19.6 1362.6,91.3 1229,91.3 1229,154.2 1346.9,154.2 1346.9,225.4 1229,225.4 1229,290.4 
	1364.2,290.4 1364.2,362 1148.8,362 1148.8,19.6 "/>
<rect x="261.4" y="250.3" class="st0" width="382.7" height="114.8"/>
<rect x="261.4" y="475.2" class="st0" width="382.7" height="114.9"/>
<polygon class="st0" points="14.4,25.7 14.4,140.6 14.4,701.4 14.4,816.3 129.3,816.3 360.4,816.3 360.4,701.4 129.3,701.4 
	129.3,140.6 360.4,140.6 360.4,25.7 129.3,25.7 "/>
<polygon class="st0" points="776.3,25.7 538.7,25.7 538.7,140.6 776.3,140.6 776.3,701.4 538.7,701.4 538.7,816.3 776.3,816.3 
	891.1,816.3 891.1,701.4 891.1,140.6 891.1,25.7 "/>
<path class="st0" d="M1412.4,189.8c0-107.2,37.6-178.3,142.8-178.3c105.7,0,142.7,71.1,142.7,178.3v1.5c0,74.7-17.8,131.1-64,159.5
	l51.8,60.4l-69.6,35.6l-50.3-77.2c-3.1,0.5-7.1,0.5-10.7,0.5c-105.1,0-142.8-71.1-142.8-178.8V189.8z M1496.7,190.8
	c0,70.6,15.2,106.7,58.4,106.7c43.2,0,58.9-36.1,58.9-106.7c0-70.1-15.8-106.7-58.9-106.7C1512,84.1,1496.7,120.7,1496.7,190.8"/>
<path class="st0" d="M1833.5,19.1v208.3c0,46.8,9.6,70.1,50.8,70.1c41.7,0,50.8-23.3,50.8-70.1V19.1h80.3v212.3
	c0,90.4-31.5,138.7-131.1,138.7c-99.6,0-131-48.3-131-138.7V19.1H1833.5z"/>
<path class="st0" d="M2236.4,19.6c27.4,71.6,75.2,219.5,108.7,342.4h-81.8l-14.7-65h-104.1l-14.8,65h-81.3
	c31.5-122.9,80.3-270.8,108.2-342.4H2236.4z M2195.2,113.6c-12.7,38.1-22.8,75.2-32.5,111.7h67.6c-10.7-36.6-20.3-73.7-32.5-111.7
	H2195.2z"/>
<polygon class="st0" points="2469.5,19.6 2469.5,290.4 2604.6,290.4 2604.6,362 2389.2,362 2389.2,19.6 "/>
<polygon class="st0" points="1367.7,474.6 1362.6,546.2 1229,546.2 1229,609.2 1346.9,609.2 1346.9,680.3 1229,680.3 1229,745.4 
	1364.2,745.4 1364.2,817 1148.8,817 1148.8,474.6 "/>
<path class="st0" d="M1494.2,474.6c14.8,30,36.6,72.2,54.8,104.2h1.5c18.8-30.5,41.1-74.2,55.4-104.2h90.4
	c-23.8,48.8-61.4,113.3-96,170.2L1703.5,817h-96l-55.9-104.1h-1.5L1493.2,817h-94.5l101.1-172.7c-32-54.3-72.1-127.5-95.5-169.7
	H1494.2z"/>
<path class="st0" d="M1835.6,474.6c30,0,60,2,82.8,9.7c38.1,13.7,63,51.3,63,104.2c0,77.7-49.3,116.3-132.1,116.3H1827V817h-80.3
	V474.6H1835.6z M1827,633.1h15.7c34.6,0,54.4-4.1,54.4-44.7c0-15.3-5.6-28.5-14.7-34.6c-9.1-6.1-21.3-7.6-38.6-7.6H1827V633.1z"/>
<polygon class="st0" points="2252.6,474.6 2247.5,546.2 2113.9,546.2 2113.9,609.2 2231.8,609.2 2231.8,680.3 2113.9,680.3 
	2113.9,745.4 2249.1,745.4 2249.1,817 2033.7,817 2033.7,474.6 "/>
<path class="st0" d="M2398.4,474.6c30,0,60,2,82.8,9.7c38.1,13.7,63,51.3,63,104.1c0,47.3-18.3,80.3-51.3,98.5l61.9,130.1h-83.3
	l-49.3-112.8c-5.6,0.5-13.2,0.5-20.3,0.5h-12.2V817h-80.3V474.6H2398.4z M2389.8,634.6h15.7c34.6,0,54.4-5.6,54.4-46.2
	c0-15.3-5.6-29.5-14.7-35.6c-9.2-6.1-20.4-7.6-38.7-7.6h-16.7V634.6z"/>
<polygon class="st0" points="2825.6,474.6 2820.5,546.2 2738.7,546.2 2738.7,817 2658.5,817 2658.5,546.2 2574.6,546.2 
	2574.6,474.6 "/>
<path class="st0" d="M3065.9,559.9c-24.4-12.7-52.8-20.3-78.8-20.3c-12.2,0-22.8,1.5-29.4,5.1c-10.7,4.6-14.8,12.7-14.8,22.3
	c0,18.3,18.3,29,43.2,39.1l28.5,11.2c50.8,20.3,74.7,47.7,74.7,97.5c0,79.2-57.9,110.2-127.5,110.2c-30.5,0-66.6-6.6-95-16.2
	l3.6-77.2c24.9,12.2,61,20.8,83.8,20.8c36.6,0,50.8-9.2,50.8-30c0-19.8-13.2-28.4-42.2-40.1l-28.4-11.2
	c-41.2-16.3-75.7-45.2-75.7-102.1c0-56.4,41.2-102.7,124.5-102.7c33.5,0,67.6,9.2,87.4,17.3L3065.9,559.9z"/>
</svg>
