<svg id="Layer_1" data-name="Layer 1" xmlns="http://www.w3.org/2000/svg" viewBox="0 0 56.69 56.69"><defs><style>.cls-1{fill:#fff;}.cls-2{fill:#1795d4;}</style></defs><title>ic_Github</title><ellipse class="cls-1" cx="28.35" cy="29.61" rx="24.44" ry="24.69"/><path class="cls-2" d="M28.35,3c-13.81,0-25,11.48-25,25.64A25.59,25.59,0,0,0,20.44,53c1.25.24,1.71-.56,1.71-1.23s0-2.63,0-4.78c-7,1.55-8.43-3-8.43-3-1.13-3-2.77-3.75-2.77-3.75-2.27-1.59.17-1.56.17-1.56a5.26,5.26,0,0,1,3.83,2.64c2.23,3.92,5.85,2.79,7.28,2.13A5.54,5.54,0,0,1,23.78,40c-5.55-.64-11.39-2.84-11.39-12.66A10,10,0,0,1,15,20.43a9.43,9.43,0,0,1,.24-6.79s2.1-.69,6.88,2.63a23.21,23.21,0,0,1,12.52,0c4.77-3.32,6.87-2.63,6.87-2.63a9.43,9.43,0,0,1,.24,6.79,10,10,0,0,1,2.58,6.88c0,9.84-5.85,12-11.42,12.64a6.22,6.22,0,0,1,1.7,4.75c0,3.43,0,6.19,0,7,0,.68.45,1.48,1.71,1.23A25.6,25.6,0,0,0,53.35,28.65C53.35,14.49,42.15,3,28.35,3Z"/><path class="cls-2" d="M12.82,39.82a.32.32,0,0,1-.43.07c-.18-.08-.29-.25-.23-.38a.31.31,0,0,1,.43-.08c.18.08.29.26.23.39Z"/><path class="cls-2" d="M13.83,41c-.12.12-.35.06-.51-.11a.4.4,0,0,1-.08-.54c.13-.11.35-.06.52.12s.19.42.07.53Z"/><path class="cls-2" d="M14.81,42.45c-.15.11-.4,0-.55-.22s-.16-.5,0-.61.4,0,.56.21.15.51,0,.62Z"/><path class="cls-2" d="M16.16,43.88c-.13.15-.42.11-.64-.1a.5.5,0,0,1-.14-.66c.14-.15.43-.11.65.1s.28.5.13.66Z"/><path class="cls-2" d="M18,44.7c-.06.21-.34.3-.63.21s-.47-.32-.41-.52.34-.3.63-.21.47.32.41.52Z"/><path class="cls-2" d="M20.07,44.86c0,.21-.23.38-.53.39s-.54-.17-.54-.37.23-.39.53-.4.54.17.54.38Z"/><path class="cls-2" d="M22,44.53c0,.2-.17.41-.47.47a.48.48,0,0,1-.6-.28c0-.21.18-.42.47-.47a.48.48,0,0,1,.6.28Z"/></svg>