<svg id="Layer_1" data-name="Layer 1" xmlns="http://www.w3.org/2000/svg" viewBox="0 0 56.69 56.69"><defs><style>.cls-1{fill:#fff;}.cls-2{fill:#1795d4;}</style></defs><title>ic_Linkedin</title><circle class="cls-1" cx="28.58" cy="27.91" r="22.5"/><path class="cls-2" d="M30.39,25.41v0l0,0Z"/><path class="cls-2" d="M28.35,2.68a25,25,0,1,0,25,25A25,25,0,0,0,28.35,2.68Zm-4.5,33.57H19.63V23.57h4.22ZM21.74,21.84h0a2.18,2.18,0,0,1-2.33-2.19,2.2,2.2,0,0,1,2.39-2.19,2.2,2.2,0,1,1,0,4.38ZM39,36.25H34.83V29.46c0-1.7-.61-2.86-2.14-2.86a2.3,2.3,0,0,0-2.16,1.54,2.92,2.92,0,0,0-.14,1v7.08H26.18s.05-11.49,0-12.68h4.21v1.8a4.17,4.17,0,0,1,3.8-2.1C37,23.27,39,25.08,39,29Z"/></svg>