<svg id="Layer_1" data-name="Layer 1" xmlns="http://www.w3.org/2000/svg" viewBox="0 0 56.69 56.69"><defs><style>.cls-1{fill:#fff;}.cls-2{fill:#1795d4;}</style></defs><title>ic_Twitter</title><circle class="cls-1" cx="28.73" cy="28.9" r="22.5"/><path class="cls-2" d="M28.35,2.68a25,25,0,1,0,25,25A25,25,0,0,0,28.35,2.68Zm12.59,20c0,.27,0,.54,0,.82C41,31.78,34.62,41.38,23,41.38a17.78,17.78,0,0,1-9.65-2.83,12.33,12.33,0,0,0,1.5.09,12.62,12.62,0,0,0,7.82-2.7,6.3,6.3,0,0,1-5.88-4.37,6.56,6.56,0,0,0,1.18.11,6.46,6.46,0,0,0,1.66-.22,6.31,6.31,0,0,1-5.05-6.18V25.2a6.39,6.39,0,0,0,2.85.79,6.31,6.31,0,0,1-2-8.41,17.89,17.89,0,0,0,13,6.58,6.17,6.17,0,0,1-.16-1.44,6.3,6.3,0,0,1,10.9-4.31,12.67,12.67,0,0,0,4-1.53,6.35,6.35,0,0,1-2.78,3.49,12.43,12.43,0,0,0,3.62-1A12.8,12.8,0,0,1,40.94,22.64Z"/></svg>