<svg id="Layer_1" data-name="Layer 1" xmlns="http://www.w3.org/2000/svg" viewBox="0 0 56.69 56.69"><defs><style>.cls-1{fill:#fff;}.cls-2{fill:#1795d4;}</style></defs><title>ic_Youtube</title><circle class="cls-1" cx="28.68" cy="28.35" r="22.5"/><polygon class="cls-2" points="17.67 30.12 19.48 30.12 19.48 39.11 21.23 39.11 21.23 30.12 23.04 30.12 23.04 28.59 17.67 28.59 17.67 30.12"/><path class="cls-2" d="M28.41,22.65a.81.81,0,0,0,.57-.2.7.7,0,0,0,.21-.54V17.25A.54.54,0,0,0,29,16.8a.82.82,0,0,0-.56-.17.76.76,0,0,0-.52.17.57.57,0,0,0-.19.45v4.66a.73.73,0,0,0,.18.54A.71.71,0,0,0,28.41,22.65Z"/><path class="cls-2" d="M32.27,31.25a1.49,1.49,0,0,0-.72.19,2.31,2.31,0,0,0-.66.54V28.59H29.32V39.11h1.57v-.6a2,2,0,0,0,.66.53,1.8,1.8,0,0,0,.82.17,1.27,1.27,0,0,0,1.05-.44,1.93,1.93,0,0,0,.37-1.26V33.2a2.24,2.24,0,0,0-.4-1.45A1.33,1.33,0,0,0,32.27,31.25Zm-.08,6a.85.85,0,0,1-.14.54.51.51,0,0,1-.42.16,1,1,0,0,1-.37-.08,1.24,1.24,0,0,1-.37-.27V32.8a1.12,1.12,0,0,1,.32-.24.8.8,0,0,1,.33-.08.6.6,0,0,1,.48.2,1,1,0,0,1,.17.6Z"/><path class="cls-2" d="M26.6,37.25a2.09,2.09,0,0,1-.48.41.85.85,0,0,1-.43.16.39.39,0,0,1-.32-.12.67.67,0,0,1-.1-.4V31.35H23.72v6.49a1.7,1.7,0,0,0,.27,1,1,1,0,0,0,.82.34,1.84,1.84,0,0,0,.9-.24,3.44,3.44,0,0,0,.89-.72v.85h1.55V31.35H26.6v5.9Z"/><path class="cls-2" d="M28.35,3a25,25,0,1,0,25,25A25,25,0,0,0,28.35,3Zm4,12.35h1.74v6.56a.73.73,0,0,0,.11.44.43.43,0,0,0,.36.14,1.05,1.05,0,0,0,.49-.19,2.28,2.28,0,0,0,.53-.46V15.36h1.75v8.55H35.62V23a3.58,3.58,0,0,1-1,.79,2.24,2.24,0,0,1-1,.28,1.1,1.1,0,0,1-.91-.39,1.81,1.81,0,0,1-.3-1.14Zm-6.49,2a2,2,0,0,1,.7-1.59,2.9,2.9,0,0,1,1.9-.59,2.61,2.61,0,0,1,1.78.62A2.07,2.07,0,0,1,31,17.37v4.41a2.21,2.21,0,0,1-.68,1.72,2.65,2.65,0,0,1-1.87.63,2.6,2.6,0,0,1-1.83-.64,2.3,2.3,0,0,1-.69-1.74V17.32Zm-4.76-5L22.42,17h.12l1.22-4.63h2L23.47,19.1v4.81h-2V19.32l-2.34-7ZM44,36.72a5.6,5.6,0,0,1-5.6,5.6H19a5.6,5.6,0,0,1-5.6-5.6V32.21a5.6,5.6,0,0,1,5.6-5.6H38.42a5.6,5.6,0,0,1,5.6,5.6Z"/><path class="cls-2" d="M37,31.15a2.32,2.32,0,0,0-1.7.64,2.17,2.17,0,0,0-.66,1.64v3.49a2.45,2.45,0,0,0,.6,1.76,2.12,2.12,0,0,0,1.64.64,2.33,2.33,0,0,0,1.74-.6,2.48,2.48,0,0,0,.58-1.8v-.4H37.57v.36a1.55,1.55,0,0,1-.16.88.61.61,0,0,1-.53.2.57.57,0,0,1-.53-.23,1.71,1.71,0,0,1-.15-.85V35.42h3v-2a2.35,2.35,0,0,0-.57-1.69A2.21,2.21,0,0,0,37,31.15Zm.61,3.06H36.2v-.79a1.11,1.11,0,0,1,.16-.69.74.74,0,0,1,1,0,1.18,1.18,0,0,1,.16.69v.79Z"/></svg>